<?xml version="1.0" encoding="UTF-8" standalone="no"?>
<svg
   xmlns:dc="http://purl.org/dc/elements/1.1/"
   xmlns:cc="http://creativecommons.org/ns#"
   xmlns:rdf="http://www.w3.org/1999/02/22-rdf-syntax-ns#"
   xmlns:svg="http://www.w3.org/2000/svg"
   xmlns="http://www.w3.org/2000/svg"
   height="91.519997"
   width="219.3521"
   version="1.1"
   viewBox="0 0 219.35209 91.519996"
   data-name="Ebene 1"
   id="Ebene_1">
  <metadata
     id="metadata41">
    <rdf:RDF>
      <cc:Work
         rdf:about="">
        <dc:format>image/svg+xml</dc:format>
        <dc:type
           rdf:resource="http://purl.org/dc/dcmitype/StillImage" />
        <dc:title></dc:title>
      </cc:Work>
    </rdf:RDF>
  </metadata>
  <defs
     id="defs4">
    <style
       id="style2">.cls-1{fill:#3c3c3b;}.cls-2{fill:#fff;}</style>
  </defs>
  <path
     style="fill:#ffffff"
     id="path8"
     d="m 107.8621,37.79 h -3.17 l -8.830004,-14.14 -2.24,-4.16 v 0 l 0.13,3.39 v 14.91 h -2.44 V 16.71 h 3.17 l 8.770004,14 2.32,4.26 v 0 l -0.13,-3.39 V 16.71 h 2.43 z"
     class="cls-2" />
  <path
     style="fill:#ffffff"
     id="path10"
     d="m 127.5721,30.71 h -12 a 5.8,5.8 0 0 0 1.62,3.78 5,5 0 0 0 3.6,1.34 6.19,6.19 0 0 0 2.92,-0.61 3.14,3.14 0 0 0 1.59,-1.76 l 2.14,1.12 a 6.58,6.58 0 0 1 -2.56,2.59 8.26,8.26 0 0 1 -4.09,0.9 7.4,7.4 0 0 1 -5.68,-2.21 8.58,8.58 0 0 1 -2.07,-6.11 8.87,8.87 0 0 1 2,-6.11 7.09,7.09 0 0 1 5.53,-2.17 7.34,7.34 0 0 1 3.88,1 6.39,6.39 0 0 1 2.46,2.69 8.46,8.46 0 0 1 0.83,3.81 12.07,12.07 0 0 1 -0.17,1.74 z m -10.44,-5.79 a 5.7,5.7 0 0 0 -1.56,3.56 h 9.7 a 5.87,5.87 0 0 0 -1.47,-3.51 4.29,4.29 0 0 0 -3.23,-1.26 4.7,4.7 0 0 0 -3.41,1.25 z"
     class="cls-2" />
  <path
     style="fill:#ffffff"
     id="path12"
     d="m 141.9121,36.71 a 5.94,5.94 0 0 1 -4.13,1.44 4.68,4.68 0 0 1 -3.21,-1.1 4.07,4.07 0 0 1 -1.27,-3.23 V 24 h -3.2 v -2.21 h 3.2 v -3.84 l 2.56,-0.7 v 4.54 h 5.92 V 24 h -5.92 v 9.37 a 2.24,2.24 0 0 0 0.66,1.75 2.53,2.53 0 0 0 1.74,0.59 3.76,3.76 0 0 0 2.72,-1.18 z"
     class="cls-2" />
  <path
     style="fill:#ffffff"
     id="path14"
     d="m 168.7621,21.79 -5.57,16 h -2.56 l -4.51,-12.74 -4.26,12.74 h -2.56 l -5.57,-16 h 2.84 l 4,13 4.35,-13 h 2.65 l 4.36,13 4,-13 z"
     class="cls-2" />
  <path
     style="fill:#ffffff"
     id="path16"
     d="m 184.8421,23.71 a 8.62,8.62 0 0 1 2.06,6.11 8.62,8.62 0 0 1 -2.06,6.11 8.4,8.4 0 0 1 -11.36,0 8.58,8.58 0 0 1 -2.07,-6.11 8.58,8.58 0 0 1 2.07,-6.11 8.4,8.4 0 0 1 11.36,0 z m -9.49,1.63 a 6.72,6.72 0 0 0 -1.38,4.48 6.72,6.72 0 0 0 1.38,4.48 5.26,5.26 0 0 0 7.61,0 6.72,6.72 0 0 0 1.38,-4.48 6.72,6.72 0 0 0 -1.38,-4.48 5.26,5.26 0 0 0 -7.61,0 z"
     class="cls-2" />
  <path
     style="fill:#ffffff"
     id="path18"
     d="m 201.1721,21.79 -0.51,2.5 a 4.18,4.18 0 0 0 -2,-0.42 3.86,3.86 0 0 0 -2,0.59 4.46,4.46 0 0 0 -1.6,1.79 6.3,6.3 0 0 0 -0.62,2.9 v 8.64 h -2.56 v -16 h 2.08 l 0.35,2.62 c 0.9,-2 2.6,-2.94 5.12,-2.94 a 3.89,3.89 0 0 1 1.74,0.32 z"
     class="cls-2" />
  <path
     style="fill:#ffffff"
     id="path20"
     d="m 210.8721,29.89 -3.39,3.39 v 4.51 h -2.56 V 14.43 h 2.56 v 15.65 l 8.28,-8.29 h 3.2 l -6.24,6.24 6.63,9.76 h -3.11 z"
     class="cls-2" />
  <path
     style="fill:#ffffff"
     id="path22"
     d="m 112.3721,69.79 h -4.88 l -9.790004,-16 -2.46,-4.68 v 0 l 0.15,4.3 v 16.36 h -3.82 V 44.45 h 4.84 l 9.750004,15.93 2.5,4.72 v 0 l -0.16,-4.3 V 44.45 h 3.81 z"
     class="cls-2" />
  <path
     style="fill:#ffffff"
     id="path24"
     d="m 137.4821,66.95 -0.27,2.76 a 5.74,5.74 0 0 1 -2.38,0.46 4.64,4.64 0 0 1 -2.63,-0.65 3.26,3.26 0 0 1 -1.29,-2.19 5.68,5.68 0 0 1 -2.61,2.09 9.63,9.63 0 0 1 -3.88,0.75 7.35,7.35 0 0 1 -4.53,-1.3 4.39,4.39 0 0 1 -1.72,-3.73 4.76,4.76 0 0 1 1.88,-3.82 12.11,12.11 0 0 1 5.6,-2.21 l 4.88,-0.84 v -1 a 3.73,3.73 0 0 0 -1,-2.78 3.93,3.93 0 0 0 -2.88,-1 4.73,4.73 0 0 0 -4.95,3.46 l -3.19,-1.69 a 6.38,6.38 0 0 1 2.82,-3.65 9.64,9.64 0 0 1 5.24,-1.4 9.3,9.3 0 0 1 5.91,1.72 6.09,6.09 0 0 1 2.19,5.07 v 8.71 a 1.52,1.52 0 0 0 0.33,1.08 1.44,1.44 0 0 0 1.09,0.34 5.72,5.72 0 0 0 1.39,-0.18 z m -8.52,-0.89 a 3,3 0 0 0 1.61,-2.65 v -2.3 l -4.19,0.85 a 7.53,7.53 0 0 0 -3,1.07 2.17,2.17 0 0 0 -1,1.84 1.92,1.92 0 0 0 0.75,1.64 3.53,3.53 0 0 0 2.13,0.55 6.64,6.64 0 0 0 3.7,-1 z"
     class="cls-2" />
  <path
     style="fill:#ffffff"
     id="path26"
     d="m 153.4221,68.52 a 6.92,6.92 0 0 1 -2.25,1.19 8.84,8.84 0 0 1 -2.86,0.44 6.42,6.42 0 0 1 -4.24,-1.32 5.15,5.15 0 0 1 -1.64,-4.13 V 53.81 h -3.64 v -3.22 h 3.64 V 46.1 l 4.14,-1.16 v 5.65 h 6.72 v 3.22 h -6.72 v 10.22 a 2.6,2.6 0 0 0 0.75,2.05 3,3 0 0 0 2.06,0.68 4.49,4.49 0 0 0 3.11,-1.23 z"
     class="cls-2" />
  <path
     style="fill:#ffffff"
     id="path28"
     d="m 175.0421,50.59 v 19.2 h -3.65 l -0.16,-3.11 q -1.95,3.5 -6.83,3.49 a 7.18,7.18 0 0 1 -5,-1.71 q -1.9,-1.69 -1.9,-5.24 V 50.59 h 4.07 v 11.56 a 5.21,5.21 0 0 0 1,3.59 3.9,3.9 0 0 0 3,1 5.32,5.32 0 0 0 3.86,-1.47 5.84,5.84 0 0 0 1.52,-4.36 V 50.59 Z"
     class="cls-2" />
  <path
     style="fill:#ffffff"
     id="path30"
     d="m 193.8121,50.59 -0.65,3.76 a 5,5 0 0 0 -2.42,-0.5 4.41,4.41 0 0 0 -2.32,0.66 5,5 0 0 0 -1.81,2 6.57,6.57 0 0 0 -0.71,3.15 v 10.18 h -4.11 V 50.59 h 3.5 l 0.34,3.46 a 6,6 0 0 1 6.07,-3.84 4.71,4.71 0 0 1 2.11,0.38 z"
     class="cls-2" />
  <path
     style="fill:#ffffff"
     id="path32"
     d="m 214.5721,61.71 h -14 a 6.08,6.08 0 0 0 1.81,3.85 5.34,5.34 0 0 0 3.76,1.33 6.53,6.53 0 0 0 3.13,-0.67 3.56,3.56 0 0 0 1.71,-1.94 l 3.42,1.42 q -2.16,4.45 -8.26,4.45 a 9.35,9.35 0 0 1 -7.08,-2.65 10.08,10.08 0 0 1 -2.56,-7.33 q 0,-4.73 2.46,-7.35 a 9,9 0 0 1 6.91,-2.63 8.41,8.41 0 0 1 6.57,2.57 9.75,9.75 0 0 1 2.34,6.83 14.3,14.3 0 0 1 -0.21,2.12 z m -12.35,-7 a 6.24,6.24 0 0 0 -1.71,3.8 h 10.37 a 6.38,6.38 0 0 0 -1.63,-3.77 4.65,4.65 0 0 0 -3.44,-1.34 5,5 0 0 0 -3.57,1.38 z"
     class="cls-2" />
  <path
     style="fill:#ffffff"
     id="path34"
     d="m 19.572096,72.12 -0.56,-35 c 0,-0.6 -0.52,-7.08 2.16,-9 -0.78,0 -3,-2.07 -9.75,0.32 -11.71999994,4.19 -15.0699999,20.17 -6.9999999,40.87 7.3799999,18.93 4.75,22.21 4.75,22.21 0,0 26.0999999,-3.59 30.1599999,-18.95 l -14.84,-39.53 a 0.85,0.85 0 0 0 -1.64,0.3 l 0.16,35.28 a 3.5,3.5 0 0 1 -3.49,3.5 z"
     class="cls-2" />
  <path
     style="fill:#ffffff"
     id="path36"
     d="m 63.632096,27.27 c -6.73,-17.18 -7.76,-27.27 -7.76,-27.27 0,0 -28.56,9.92 -28.56,29.6 l 14.62,39 a 1.19,1.19 0 0 0 2.31,-0.39 c 0.27,-14.58 0.57,-44.36 0.57,-44.36 v 0 a 3.44,3.44 0 0 1 3.43,3.43 c 0,0 0.44,27.27 -0.57,42.44 -0.15,2.24 -1.37,3.32 -4.25,4.22 0.56,0 5.23,1.22 8.64,0.34 12.62,-3.25 22.57,-18.92 11.57,-47.01 z"
     class="cls-2" />
</svg>
